<svg width="99" height="100" viewBox="0 0 99 100" fill="none" xmlns="http://www.w3.org/2000/svg">
<path d="M57.5 0H49.5V100H57.5L58 90.5L70.5 85L78.5 91.5L90.5 79L84 71.5L89 59L99 58.5V41.5L89 40.5L84 28L90 20.5L78.5 8.5L70.5 15L58 10L57.5 0Z" fill="#08475E"/>
<path d="M41.5 0H49.5V100H41.5L41 90.5L28.5 85L20.5 91.5L8.5 79L15 71.5L10 59L0 58.5V41.5L10 40.5L15 28L9 20.5L20.5 8.5L28.5 15L41 10L41.5 0Z" fill="#0A617D"/>
<circle cx="49" cy="50" r="28" fill="#BFE4F8"/>
<g clip-path="url(#clip0_406_5)">
<circle cx="49" cy="50" r="28" fill="#4BBAED"/>
</g>
<path d="M46.7563 55.9646L38.1521 47.3604C37.2017 46.41 35.6608 46.41 34.7105 47.3604C33.7601 48.3108 33.7601 49.8517 34.7105 50.8021L42.3565 58.4481C44.7601 60.8517 48.6786 60.7805 50.9932 58.291L66.4087 41.7115C67.2968 40.7564 67.2697 39.2697 66.3475 38.3475C65.3721 37.3721 63.7804 37.4064 62.8479 38.4229L46.7563 55.9646Z" fill="white"/>
<defs>
<clipPath id="clip0_406_5">
<rect width="28" height="56" fill="white" transform="translate(49 22)"/>
</clipPath>
</defs>
</svg>
