<svg width="96" height="96" viewBox="0 0 96 96" fill="none" xmlns="http://www.w3.org/2000/svg">
<path d="M48 75.9389L73.6045 91.5284C75.1172 92.4493 76.9922 91.0949 76.5932 89.3695L69.792 59.96L92.4558 40.1542C93.7843 38.9932 93.0681 36.8059 91.3102 36.6555L61.488 34.1032L49.8439 6.38864C49.1575 4.7549 46.8425 4.7549 46.1561 6.38864L34.512 34.1032L4.68977 36.6555C2.93187 36.8059 2.21573 38.9932 3.54425 40.1542L26.208 59.96L19.4069 89.3694C19.0078 91.0949 20.8828 92.4493 22.3955 91.5284L48 75.9389Z" fill="#BFE4F8"/>
<g clip-path="url(#clip0_406_39)">
<path d="M48 76.3692L74.327 92.2591C75.8417 93.1733 77.7101 91.8153 77.3082 90.0924L70.3217 60.1442L93.5839 39.9921C94.9211 38.8337 94.2063 36.6372 92.4435 36.4876L61.8159 33.8892L49.8415 5.63643C49.1523 4.01037 46.8478 4.01037 46.1586 5.63643L34.1842 33.8892L3.55664 36.4876C1.79379 36.6372 1.07897 38.8337 2.41616 39.9921L25.6784 60.1442L18.6919 90.0924C18.2899 91.8153 20.1584 93.1733 21.673 92.2591L48 76.3692Z" fill="#4BBAED"/>
</g>
<defs>
<clipPath id="clip0_406_39">
<rect width="47" height="88" fill="white" transform="translate(48 5)"/>
</clipPath>
</defs>
</svg>
